<svg xmlns="http://www.w3.org/2000/svg" viewBox="0 0 200 200">
  <!-- Background circle - with its own color class -->
  <circle cx="100" cy="100" r="90" fill="currentColor" class="background-color" />
  
  <!-- Survey clipboard -->
  <rect x="60" y="40" width="80" height="120" rx="8" fill="#ffffff" stroke="currentColor" class="item-color" stroke-width="5" />
  
  <!-- Clipboard top -->
  <rect x="85" y="30" width="30" height="20" rx="5" fill="currentColor" class="item-color" />
  
  <!-- Survey lines -->
  <line x1="75" y1="70" x2="125" y2="70" stroke="currentColor" class="item-color" stroke-width="4" stroke-linecap="round" />
  <line x1="75" y1="90" x2="125" y2="90" stroke="currentColor" class="item-color" stroke-width="4" stroke-linecap="round" />
  <line x1="75" y1="110" x2="125" y2="110" stroke="currentColor" class="item-color" stroke-width="4" stroke-linecap="round" />
  
  <!-- Star rating -->
  <polygon points="75,130 79,138 88,140 81.5,146 83,155 75,151 67,155 68.5,146 62,140 71,138" fill="currentColor" class="item-color" />
  <polygon points="100,130 104,138 113,140 106.5,146 108,155 100,151 92,155 93.5,146 87,140 96,138" fill="currentColor" class="item-color" />
  <polygon points="125,130 129,138 138,140 131.5,146 133,155 125,151 117,155 118.5,146 112,140 121,138" fill="currentColor" class="item-color" />
  
  <style>
    .background-color { color: #f5f5f5; }
    .item-color { color: #4285F4; }
  </style>
</svg>